<svg width="20" height="20" viewBox="0 0 20 20" fill="none" xmlns="http://www.w3.org/2000/svg">
<path d="M6.66634 9.99996C6.2061 9.99996 5.83301 10.3731 5.83301 10.8333C5.83301 11.2935 6.2061 11.6666 6.66634 11.6666H6.67382C7.13406 11.6666 7.50715 11.2935 7.50715 10.8333C7.50715 10.3731 7.13406 9.99996 6.67382 9.99996H6.66634Z" fill="#161616"/>
<path d="M9.99594 9.99996C9.5357 9.99996 9.1626 10.3731 9.1626 10.8333C9.1626 11.2935 9.5357 11.6666 9.99594 11.6666H10.0034C10.4636 11.6666 10.8367 11.2935 10.8367 10.8333C10.8367 10.3731 10.4636 9.99996 10.0034 9.99996H9.99594Z" fill="#161616"/>
<path d="M13.3255 9.99996C12.8653 9.99996 12.4922 10.3731 12.4922 10.8333C12.4922 11.2935 12.8653 11.6666 13.3255 11.6666H13.333C13.7932 11.6666 14.1663 11.2935 14.1663 10.8333C14.1663 10.3731 13.7932 9.99996 13.333 9.99996H13.3255Z" fill="#161616"/>
<path d="M6.66634 13.3333C6.2061 13.3333 5.83301 13.7064 5.83301 14.1666C5.83301 14.6269 6.2061 15 6.66634 15H6.67382C7.13406 15 7.50715 14.6269 7.50715 14.1666C7.50715 13.7064 7.13406 13.3333 6.67382 13.3333H6.66634Z" fill="#161616"/>
<path d="M9.99594 13.3333C9.5357 13.3333 9.1626 13.7064 9.1626 14.1666C9.1626 14.6269 9.5357 15 9.99594 15H10.0034C10.4636 15 10.8367 14.6269 10.8367 14.1666C10.8367 13.7064 10.4636 13.3333 10.0034 13.3333H9.99594Z" fill="#161616"/>
<path fill-rule="evenodd" clip-rule="evenodd" d="M5.62467 1.66663C5.62467 1.32145 5.34485 1.04163 4.99967 1.04163C4.6545 1.04163 4.37467 1.32145 4.37467 1.66663V2.19562C3.70404 2.38569 3.13842 2.69462 2.66763 3.20359C2.01937 3.90441 1.73122 4.78989 1.59322 5.89955C1.45799 6.98688 1.458 8.38035 1.45801 10.1583V10.6749C1.458 12.4529 1.45799 13.8464 1.59322 14.9337C1.73122 16.0434 2.01937 16.9288 2.66763 17.6297C3.32229 18.3374 4.16031 18.6584 5.20908 18.8108C6.22411 18.9583 7.52096 18.9583 9.15738 18.9583H10.842C12.4784 18.9583 13.7752 18.9583 14.7903 18.8108C15.839 18.6584 16.6771 18.3374 17.3317 17.6297C17.98 16.9288 18.2681 16.0434 18.4061 14.9337C18.5414 13.8464 18.5414 12.4529 18.5413 10.6749V10.1584C18.5414 8.38036 18.5414 6.98689 18.4061 5.89955C18.2681 4.78989 17.98 3.90441 17.3317 3.20359C16.8609 2.69462 16.2953 2.38569 15.6247 2.19562V1.66663C15.6247 1.32145 15.3449 1.04163 14.9997 1.04163C14.6545 1.04163 14.3747 1.32145 14.3747 1.66663V1.97154C13.428 1.87494 12.263 1.87495 10.842 1.87496H9.15738C7.73636 1.87495 6.57139 1.87494 5.62467 1.97154V1.66663ZM4.39851 3.50483C4.47306 3.76661 4.71398 3.95829 4.99967 3.95829C5.34485 3.95829 5.62467 3.67847 5.62467 3.33329V3.22878C6.50885 3.12626 7.65165 3.12496 9.20801 3.12496H10.7913C12.3477 3.12496 13.4905 3.12626 14.3747 3.22878V3.33329C14.3747 3.67847 14.6545 3.95829 14.9997 3.95829C15.2854 3.95829 15.5263 3.76661 15.6008 3.50483C15.9403 3.63989 16.198 3.81876 16.4141 4.0524C16.8084 4.47862 17.0417 5.06319 17.1648 6.04693C17.1381 6.04343 17.1107 6.04163 17.083 6.04163H2.91634C2.88861 6.04163 2.8613 6.04343 2.83452 6.04693C2.9576 5.06319 3.191 4.47862 3.58525 4.0524C3.80137 3.81876 4.05908 3.63988 4.39851 3.50483ZM2.74145 7.26683C2.70847 8.06925 2.70801 9.03024 2.70801 10.2027V10.6306C2.70801 12.4625 2.70915 13.7782 2.83366 14.7794C2.95652 15.7673 3.19008 16.3536 3.58525 16.7809C3.97402 17.2011 4.49741 17.4442 5.38888 17.5738C6.30364 17.7067 7.50957 17.7083 9.20801 17.7083H10.7913C12.4898 17.7083 13.6957 17.7067 14.6105 17.5738C15.5019 17.4442 16.0253 17.2011 16.4141 16.7809C16.8093 16.3536 17.0428 15.7673 17.1657 14.7794C17.2902 13.7782 17.2913 12.4625 17.2913 10.6306V10.2027C17.2913 9.03024 17.2909 8.06925 17.2579 7.26683C17.2024 7.28297 17.1437 7.29163 17.083 7.29163H2.91634C2.85563 7.29163 2.79695 7.28297 2.74145 7.26683Z" fill="#161616"/>
</svg>
