<svg width="20" height="20" viewBox="0 0 20 20" fill="none" xmlns="http://www.w3.org/2000/svg">
    <path d="M2.709 10c0 .311.138.6.269.817.14.234.33.475.539.711.417.473.962.98 1.49 1.44a36.964 36.964 0 0 0 2.073 1.665l.037.027.01.008.003.002a.625.625 0 0 0 .741-1.006l-.01-.008-.034-.025-.129-.097a37.15 37.15 0 0 1-1.87-1.51c-.514-.446-1.01-.912-1.375-1.324a7.497 7.497 0 0 1-.066-.076h12.28a.625.625 0 1 0 0-1.25H4.39a6.7 6.7 0 0 1 .064-.075c.364-.411.861-.877 1.374-1.323a35.648 35.648 0 0 1 2-1.608l.034-.024.01-.008A.625.625 0 1 0 7.13 5.33l-.004.002-.01.007-.036.027a26.286 26.286 0 0 0-.615.47 36.9 36.9 0 0 0-1.457 1.197c-.53.459-1.074.966-1.491 1.439a5.058 5.058 0 0 0-.54.71c-.13.216-.266.503-.268.812" fill="#fff"/>
</svg>
