<svg width="20" height="20" viewBox="0 0 20 20" fill="none" xmlns="http://www.w3.org/2000/svg">
    <path d="M17.291 10c0-.312-.138-.6-.268-.817a5.063 5.063 0 0 0-.54-.712c-.417-.472-.962-.98-1.49-1.439a36.838 36.838 0 0 0-2.073-1.666l-.036-.027-.01-.007-.003-.003a.625.625 0 0 0-.742 1.007l.01.007.034.025a24.72 24.72 0 0 1 .593.454c.386.3.897.711 1.407 1.154.513.446 1.01.911 1.374 1.323l.067.077H3.333a.625.625 0 1 0 0 1.25h12.279l-.065.074c-.364.412-.86.878-1.374 1.323a35.632 35.632 0 0 1-2 1.608l-.033.025-.011.008a.625.625 0 1 0 .742 1.006l.003-.003.01-.007.036-.027.136-.102a36.721 36.721 0 0 0 1.937-1.565c.528-.458 1.073-.966 1.49-1.438.209-.236.398-.477.54-.712.13-.215.267-.502.268-.81" fill="#161616"/>
</svg>
