<svg width="20" height="20" viewBox="0 0 20 20" fill="none" xmlns="http://www.w3.org/2000/svg">
<path d="M13.7756 7.10857C14.0197 6.86449 14.0197 6.46876 13.7756 6.22468C13.5315 5.98061 13.1358 5.98061 12.8917 6.22468L10.0004 9.11602L8.35892 7.47467C8.11483 7.2306 7.7191 7.23061 7.47504 7.4747C7.23097 7.71879 7.23098 8.11451 7.47507 8.35858L9.1165 9.9999L8.72505 10.3914C8.48097 10.6354 8.48097 11.0312 8.72505 11.2752C8.96913 11.5193 9.36486 11.5193 9.60893 11.2752L10.0004 10.8838L10.3916 11.2749C10.6357 11.519 11.0314 11.519 11.2755 11.2749C11.5196 11.0308 11.5196 10.6351 11.2755 10.391L10.8843 9.99987L13.7756 7.10857Z" fill="#161616"/>
<path fill-rule="evenodd" clip-rule="evenodd" d="M10.0003 1.04163C5.05277 1.04163 1.04199 5.05241 1.04199 9.99996C1.04199 14.9475 5.05277 18.9583 10.0003 18.9583C14.9479 18.9583 18.9587 14.9475 18.9587 9.99996C18.9587 5.05241 14.9479 1.04163 10.0003 1.04163ZM2.29199 9.99996C2.29199 5.74276 5.74313 2.29163 10.0003 2.29163C14.2575 2.29163 17.7087 5.74276 17.7087 9.99996C17.7087 14.2572 14.2575 17.7083 10.0003 17.7083C5.74313 17.7083 2.29199 14.2572 2.29199 9.99996Z" fill="#161616"/>
</svg>
