<svg width="20" height="20" viewBox="0 0 20 20" fill="none" xmlns="http://www.w3.org/2000/svg">
<path fill-rule="evenodd" clip-rule="evenodd" d="M10.0013 13.125C8.27541 13.125 6.8763 11.7258 6.8763 9.99996C6.8763 8.27407 8.27541 6.87496 10.0013 6.87496C11.7272 6.87496 13.1263 8.27407 13.1263 9.99996C13.1263 11.7258 11.7272 13.125 10.0013 13.125ZM8.1263 9.99996C8.1263 11.0355 8.96577 11.875 10.0013 11.875C11.0368 11.875 11.8763 11.0355 11.8763 9.99996C11.8763 8.96443 11.0368 8.12496 10.0013 8.12496C8.96577 8.12496 8.1263 8.96443 8.1263 9.99996Z" fill="#161616"/>
<path fill-rule="evenodd" clip-rule="evenodd" d="M10.0013 3.54163C7.85917 3.54163 6.02293 4.48447 4.60156 5.59411C3.17891 6.70476 2.12736 8.01641 1.53914 8.84123L1.4948 8.90307C1.28383 9.19647 1.04297 9.53145 1.04297 9.99996C1.04297 10.4685 1.28383 10.8034 1.4948 11.0968L1.53914 11.1587C2.12736 11.9835 3.17891 13.2952 4.60156 14.4058C6.02293 15.5155 7.85917 16.4583 10.0013 16.4583C12.1434 16.4583 13.9797 15.5155 15.401 14.4058C16.8237 13.2952 17.8753 11.9835 18.4635 11.1587L18.5078 11.0968C18.7188 10.8034 18.9596 10.4685 18.9596 9.99996C18.9596 9.53145 18.7188 9.19647 18.5078 8.90307L18.4635 8.84122C17.8752 8.01641 16.8237 6.70476 15.401 5.59411C13.9797 4.48447 12.1434 3.54163 10.0013 3.54163ZM2.55686 9.567C3.10703 8.79553 4.07828 7.58844 5.37077 6.57941C6.66453 5.56939 8.23575 4.79163 10.0013 4.79163C11.7669 4.79163 13.3381 5.56939 14.6318 6.57941C15.9243 7.58844 16.8956 8.79553 17.4457 9.567C17.5818 9.75785 17.6466 9.85104 17.6852 9.92523C17.7098 9.97239 17.7097 9.98531 17.7096 9.99797L17.7096 9.99996L17.7096 10.002C17.7097 10.0146 17.7098 10.0275 17.6852 10.0747C17.6466 10.1489 17.5818 10.2421 17.4457 10.4329C16.8956 11.2044 15.9243 12.4115 14.6318 13.4205C13.3381 14.4305 11.7669 15.2083 10.0013 15.2083C8.23575 15.2083 6.66453 14.4305 5.37077 13.4205C4.07828 12.4115 3.10703 11.2044 2.55686 10.4329C2.42076 10.2421 2.35599 10.1489 2.31737 10.0747C2.29282 10.0275 2.29289 10.0146 2.29296 10.002L2.29297 9.99996L2.29296 9.99797C2.29289 9.98531 2.29282 9.97238 2.31737 9.92523C2.35598 9.85104 2.42076 9.75785 2.55686 9.567Z" fill="#161616"/>
</svg>
