<svg width="40" height="40" viewBox="0 0 40 40" fill="none" xmlns="http://www.w3.org/2000/svg">
<path d="M0 20C0 8.95431 8.95431 0 20 0V0C31.0457 0 40 8.95431 40 20V20C40 31.0457 31.0457 40 20 40V40C8.95431 40 0 31.0457 0 20V20Z" fill="#FFFAEB"/>
<path d="M19.1605 22.5001C19.1605 22.0398 19.5336 21.6667 19.9938 21.6667H20.0013C20.4615 21.6667 20.8346 22.0398 20.8346 22.5001C20.8346 22.9603 20.4615 23.3334 20.0013 23.3334H19.9938C19.5336 23.3334 19.1605 22.9603 19.1605 22.5001Z" fill="#B54708"/>
<path d="M19.3753 20.0001C19.3753 20.3453 19.6551 20.6251 20.0003 20.6251C20.3455 20.6251 20.6253 20.3453 20.6253 20.0001V16.6667C20.6253 16.3216 20.3455 16.0417 20.0003 16.0417C19.6551 16.0417 19.3753 16.3216 19.3753 16.6667V20.0001Z" fill="#B54708"/>
<path fill-rule="evenodd" clip-rule="evenodd" d="M11.042 20.0001C11.042 15.0525 15.0528 11.0417 20.0003 11.0417C24.9479 11.0417 28.9587 15.0525 28.9587 20.0001C28.9587 24.9476 24.9479 28.9584 20.0003 28.9584C15.0528 28.9584 11.042 24.9476 11.042 20.0001ZM20.0003 12.2917C15.7431 12.2917 12.292 15.7429 12.292 20.0001C12.292 24.2573 15.7431 27.7084 20.0003 27.7084C24.2575 27.7084 27.7087 24.2573 27.7087 20.0001C27.7087 15.7429 24.2575 12.2917 20.0003 12.2917Z" fill="#B54708"/>
</svg>
