<svg width="16" height="16" viewBox="0 0 16 16" fill="none" xmlns="http://www.w3.org/2000/svg">
    <path fill-rule="evenodd" clip-rule="evenodd" d="M7.783.833H7.55c-.497 0-.914 0-1.253.04-.36.043-.684.136-.976.354-.29.217-.474.502-.624.837-.135.301-.26.68-.405 1.135a9.19 9.19 0 0 0-.738.067c-.748.102-1.356.319-1.835.807-.478.487-.689 1.103-.789 1.86C.833 6.67.833 7.61.833 8.797v.073c0 1.187 0 2.127.097 2.864.1.757.31 1.373.789 1.86.479.488 1.087.705 1.835.807.724.1 1.648.1 2.811.1h.972a.5.5 0 0 0 0-1h-.934c-1.21 0-2.065-.002-2.714-.09-.633-.088-.993-.25-1.257-.518-.264-.27-.425-.64-.51-1.29-.088-.663-.089-1.538-.089-2.77 0-1.231.001-2.106.089-2.769.085-.65.246-1.02.51-1.29.264-.269.624-.43 1.257-.517.649-.09 1.505-.09 2.714-.09h2.535c1.21 0 2.066 0 2.714.09.634.087.994.248 1.257.517.415.422.56 1.075.59 2.57a.5.5 0 1 0 1-.02c-.03-1.451-.148-2.509-.876-3.25-.48-.49-1.087-.706-1.835-.808a9.234 9.234 0 0 0-.747-.067c-.146-.454-.27-.834-.405-1.135-.15-.335-.334-.62-.624-.837-.292-.218-.616-.31-.976-.353-.34-.04-.756-.04-1.253-.04zM9.98 3.17a7.504 7.504 0 0 0-.256-.696c-.113-.252-.208-.37-.31-.446-.102-.076-.236-.13-.495-.161-.274-.033-.631-.034-1.165-.034H7.58c-.534 0-.89.001-1.165.034-.26.03-.393.085-.494.16-.103.077-.198.195-.31.447a7.5 7.5 0 0 0-.257.696c.315-.003.652-.003 1.012-.003h2.612c.356 0 .69 0 1.003.003zm-1.814 8.497a3.5 3.5 0 1 1 7 0 3.5 3.5 0 0 1-7 0zm3.5-2.5a2.5 2.5 0 1 0 0 5 2.5 2.5 0 0 0 0-5zm0 .8a.5.5 0 0 1 .5.5v1.232l.678.452a.5.5 0 0 1-.555.832l-.9-.6a.5.5 0 0 1-.223-.416v-1.5a.5.5 0 0 1 .5-.5z" fill="#161616"/>
</svg>
