<svg width="16" height="16" viewBox="0 0 16 16" fill="none" xmlns="http://www.w3.org/2000/svg">
    <path fill-rule="evenodd" clip-rule="evenodd" d="M8.373.833H6.295c-1.067 0-1.921 0-2.592.095-.695.099-1.266.308-1.715.78-.446.47-.64 1.06-.732 1.78-.089.7-.089 1.595-.089 2.722v3.58c0 1.128 0 2.022.09 2.723.091.72.285 1.31.73 1.779.45.472 1.02.681 1.716.78.67.095 1.525.095 2.592.095h1.039a.5.5 0 1 0 0-1h-1c-1.115 0-1.898-.001-2.49-.085-.576-.082-.897-.232-1.131-.479-.238-.25-.386-.599-.465-1.217-.08-.63-.081-1.46-.081-2.631v-3.51c0-1.17.001-2.001.081-2.63.08-.619.227-.967.465-1.218.234-.247.555-.397 1.13-.479.127-.017.262-.032.407-.043.056.332.107.622.177.857.083.28.209.54.45.746.243.205.521.286.81.322.269.033.599.033.978.033h1.337c.38 0 .71 0 .978-.033.29-.036.567-.117.81-.322.241-.205.367-.466.45-.746.07-.235.121-.525.177-.857.145.011.28.026.407.043.575.082.896.232 1.13.48.238.25.386.598.465 1.216.08.63.081 1.46.081 2.632v2.42a.5.5 0 0 0 1 0V6.21c0-1.127 0-2.022-.09-2.723-.091-.72-.285-1.31-.73-1.778-.45-.473-1.02-.682-1.716-.78-.67-.096-1.525-.096-2.591-.096zM5.386 2.447a5.544 5.544 0 0 1-.128-.61c.32-.003.677-.004 1.076-.004h2c.398 0 .755 0 1.075.005-.046.27-.083.46-.127.609-.054.179-.101.236-.139.268-.038.032-.102.07-.287.093-.199.024-.466.025-.883.025H6.695c-.418 0-.685 0-.884-.025-.185-.024-.249-.061-.287-.093-.037-.032-.085-.089-.138-.268z" fill="#161616"/>
    <path d="M14.5 11.138a.5.5 0 0 0-.333-.942c-.557.197-1.098.577-1.582 1.001-.49.43-.949.93-1.341 1.4-.354.423-.657.829-.885 1.147a2.695 2.695 0 0 0-.715-.694c-.153-.105-.316-.216-.644-.216a.5.5 0 0 0-.022 1.001c.023.007.08.027.162.081.162.108.443.367.746.975a.5.5 0 0 0 .87.044c.06-.09.235-.354.346-.51.223-.316.538-.742.91-1.188a11.75 11.75 0 0 1 1.232-1.288c.443-.388.872-.675 1.257-.81zM4.667 6.833a.5.5 0 1 0 0 1H10a.5.5 0 1 0 0-1H4.667zM4.667 10.167a.5.5 0 0 0 0 1h2.667a.5.5 0 1 0 0-1H4.667z" fill="#161616"/>
</svg>
