<svg width="16" height="16" viewBox="0 0 16 16" fill="none" xmlns="http://www.w3.org/2000/svg">
<path d="M6.00033 8.16683C5.72418 8.16683 5.50033 8.39069 5.50033 8.66683C5.50033 8.94297 5.72418 9.16683 6.00033 9.16683H6.16699L6.16699 11.3335C6.16699 11.6096 6.39085 11.8335 6.66699 11.8335C6.94314 11.8335 7.16699 11.6096 7.16699 11.3335L7.16698 8.89831C7.16698 8.55653 6.91032 8.16683 6.46338 8.16683H6.00033Z" fill="#161616"/>
<path d="M8.66699 8.16683C8.39085 8.16683 8.16699 8.39069 8.16699 8.66683C8.16699 8.94297 8.39085 9.16683 8.66699 9.16683H9.35733L8.61798 11.1596C8.52193 11.4185 8.65394 11.7062 8.91284 11.8023C9.17173 11.8983 9.45948 11.7663 9.55554 11.5074L10.4586 9.07353C10.6375 8.59133 10.2448 8.16683 9.81411 8.16683H8.66699Z" fill="#161616"/>
<path d="M4.00033 4.8335C3.72418 4.8335 3.50033 5.05735 3.50033 5.3335C3.50033 5.60964 3.72418 5.8335 4.00033 5.8335H12.0003C12.2765 5.8335 12.5003 5.60964 12.5003 5.3335C12.5003 5.05735 12.2765 4.8335 12.0003 4.8335H4.00033Z" fill="#161616"/>
<path fill-rule="evenodd" clip-rule="evenodd" d="M4.50033 1.3335C4.50033 1.05735 4.27647 0.833496 4.00033 0.833496C3.72418 0.833496 3.50033 1.05735 3.50033 1.3335V1.75669C2.96382 1.90875 2.51133 2.15589 2.13469 2.56307C1.61608 3.12373 1.38556 3.83211 1.27516 4.71984C1.16698 5.5897 1.16699 6.70447 1.16699 8.12685V8.54014C1.16699 9.96252 1.16698 11.0773 1.27516 11.9472C1.38556 12.8349 1.61608 13.5433 2.13469 14.1039C2.65842 14.6701 3.32884 14.9269 4.16785 15.0488C4.97987 15.1669 6.01736 15.1668 7.32649 15.1668H8.67416C9.98329 15.1668 11.0208 15.1669 11.8328 15.0488C12.6718 14.9269 13.3422 14.6701 13.866 14.1039C14.3846 13.5433 14.6151 12.8349 14.7255 11.9472C14.8337 11.0773 14.8337 9.96251 14.8337 8.54012V8.12688C14.8337 6.70448 14.8337 5.5897 14.7255 4.71984C14.6151 3.83211 14.3846 3.12373 13.866 2.56307C13.4893 2.15589 13.0368 1.90875 12.5003 1.75669V1.3335C12.5003 1.05735 12.2765 0.833496 12.0003 0.833496C11.7242 0.833496 11.5003 1.05735 11.5003 1.3335V1.57743C10.743 1.50014 9.81098 1.50015 8.67416 1.50016H7.32649C6.18967 1.50015 5.2577 1.50014 4.50033 1.57743V1.3335ZM2.86879 3.24211C3.04168 3.0552 3.24785 2.9121 3.51939 2.80406C3.57903 3.01348 3.77177 3.16683 4.00033 3.16683C4.27647 3.16683 4.50033 2.94297 4.50033 2.66683V2.58322C5.20766 2.5012 6.12191 2.50016 7.36699 2.50016H8.63366C9.87874 2.50016 10.793 2.5012 11.5003 2.58322V2.66683C11.5003 2.94297 11.7242 3.16683 12.0003 3.16683C12.2289 3.16683 12.4216 3.01348 12.4813 2.80406C12.7528 2.9121 12.959 3.0552 13.1319 3.24211C13.448 3.58388 13.6349 4.05293 13.7331 4.84325C13.8327 5.64421 13.8337 6.69679 13.8337 8.16233V8.50467C13.8337 9.9702 13.8327 11.0228 13.7331 11.8237C13.6349 12.6141 13.448 13.0831 13.1319 13.4249C12.8209 13.7611 12.4021 13.9556 11.689 14.0592C10.9572 14.1656 9.99241 14.1668 8.63366 14.1668H7.36699C6.00824 14.1668 5.0435 14.1656 4.31169 14.0592C3.59851 13.9556 3.1798 13.7611 2.86879 13.4249C2.55265 13.0831 2.3658 12.6141 2.26751 11.8237C2.1679 11.0228 2.16699 9.9702 2.16699 8.50467V8.16233C2.16699 6.69679 2.1679 5.64421 2.26751 4.84325C2.3658 4.05293 2.55265 3.58388 2.86879 3.24211Z" fill="#161616"/>
</svg>
