<svg width="16" height="16" viewBox="0 0 16 16" fill="none" xmlns="http://www.w3.org/2000/svg">
    <path fill-rule="evenodd" clip-rule="evenodd" d="M8.672 12.629c.256.153.474.206.651.206.219 0 .377-.08.472-.15.174-.126.443-.435.293-1.09l-.16-.698.001-.003.558-.566c.303-.3.415-.663.308-.994-.107-.33-.407-.556-.824-.621l-.717-.122h-.002l-.4-.805c-.192-.393-.503-.62-.851-.62H8c-.348 0-.66.226-.854.618l-.4.807h-.002l-.714.122c-.416.065-.716.291-.823.62-.108.33.003.692.302.991l.562.57.001.004-.16.696c-.156.678.154.988.295 1.09.14.102.53.3 1.119-.054l.674-.4.672.399zm.417-.915-.598-.355v.002a.978.978 0 0 0-.981 0l-.6.354.142-.615.001-.008a1.006 1.006 0 0 0-.254-.883l-.517-.524.652-.11c.282-.047.568-.26.696-.519l.368-.74.368.739c.129.26.417.474.696.518l.655.111-.519.526a1.008 1.008 0 0 0-.25.888l.141.615z" fill="#161616"/>
    <path fill-rule="evenodd" clip-rule="evenodd" d="M4.5 1.333a.5.5 0 1 0-1 0v.424c-.536.152-.989.399-1.365.806-.519.56-.75 1.27-.86 2.157-.108.87-.108 1.984-.108 3.407v.413c0 1.423 0 2.537.108 3.407.11.888.341 1.596.86 2.157.523.566 1.194.823 2.033.945.812.118 1.85.118 3.158.118h1.348c1.31 0 2.347 0 3.159-.118.839-.122 1.51-.379 2.033-.945.519-.56.75-1.27.86-2.157.108-.87.108-1.984.108-3.407v-.413c0-1.423 0-2.537-.108-3.407-.11-.888-.341-1.596-.86-2.157-.377-.407-.83-.654-1.366-.806v-.423a.5.5 0 1 0-1 0v.243C10.743 1.5 9.811 1.5 8.674 1.5H7.326c-1.136 0-2.068 0-2.826.077v-.244zM2.87 3.244c.173-.188.379-.33.65-.439a.5.5 0 0 0 .981-.137v-.084c.708-.082 1.622-.083 2.867-.083h1.267c1.245 0 2.159.001 2.866.083v.084a.5.5 0 0 0 .981.137c.272.108.478.251.65.438.316.34.502.807.6 1.591H2.27c.098-.784.285-1.25.6-1.59zm-.676 2.59h11.615c.025.638.026 1.401.026 2.33v.342c0 1.465-.001 2.518-.1 3.319-.1.79-.286 1.26-.602 1.6-.311.337-.73.532-1.443.635-.732.107-1.697.108-3.055.108H7.367c-1.359 0-2.324-.001-3.055-.108-.713-.103-1.132-.298-1.443-.634-.316-.342-.503-.81-.601-1.601-.1-.801-.101-1.854-.101-3.32v-.342c0-.928 0-1.69.026-2.329z" fill="#161616"/>
</svg>
