<svg width="16" height="16" viewBox="0 0 16 16" fill="none" xmlns="http://www.w3.org/2000/svg">
<path fill-rule="evenodd" clip-rule="evenodd" d="M8.01271 4.49504C7.00021 4.49504 6.17941 5.31583 6.17941 6.32833C6.17941 7.34083 7.00021 8.16162 8.01271 8.16162C9.02521 8.16162 9.846 7.34083 9.846 6.32833C9.846 5.31583 9.02521 4.49504 8.01271 4.49504ZM7.17941 6.32833C7.17941 5.86811 7.55249 5.49504 8.01271 5.49504C8.47292 5.49504 8.846 5.86811 8.846 6.32833C8.846 6.78854 8.47292 7.16162 8.01271 7.16162C7.55249 7.16162 7.17941 6.78854 7.17941 6.32833Z" fill="#161616"/>
<path fill-rule="evenodd" clip-rule="evenodd" d="M8.01323 9.15154C7.05543 9.15054 5.76612 9.62548 4.95667 10.8716C4.83729 11.0554 4.76827 11.3442 4.92344 11.6193C5.03469 11.8166 5.23717 12.0728 5.45999 12.2861C5.5736 12.3949 5.70415 12.5038 5.84363 12.5915C5.97706 12.6754 6.15356 12.7622 6.35344 12.7835C6.80813 12.8318 7.97762 12.8379 8.01095 12.8381L8.01677 12.838C8.05171 12.8379 9.1851 12.8318 9.63913 12.7835C9.83901 12.7622 10.0155 12.6754 10.1489 12.5915C10.2884 12.5038 10.419 12.3949 10.5326 12.2861C10.7554 12.0728 10.9579 11.8166 11.0691 11.6193C11.2243 11.3442 11.1553 11.0554 11.0359 10.8716C10.2289 9.62928 8.97522 9.15254 8.01323 9.15154ZM6.15153 11.5638C6.05041 11.467 5.96062 11.3627 5.89356 11.2743C6.49679 10.4552 7.38366 10.1509 8.01219 10.1515C8.63683 10.1522 9.49668 10.452 10.0991 11.2742C10.0321 11.3626 9.94223 11.4669 9.84105 11.5638C9.7597 11.6417 9.68247 11.7036 9.61666 11.745C9.56585 11.7769 9.53781 11.7865 9.531 11.7889C9.52989 11.7892 9.52934 11.7894 9.52936 11.7895C9.52938 11.7896 9.53072 11.7894 9.53336 11.7891C9.14526 11.8304 8.0896 11.8376 8.01349 11.838C7.93597 11.8376 6.85471 11.8304 6.46322 11.7895C6.46323 11.7894 6.46269 11.7892 6.46157 11.7889C6.45476 11.7865 6.42673 11.7769 6.37592 11.745C6.31011 11.7036 6.23288 11.6417 6.15153 11.5638Z" fill="#161616"/>
<path fill-rule="evenodd" clip-rule="evenodd" d="M5.83398 1.33325C5.83398 1.05711 5.61013 0.833252 5.33398 0.833252C5.05784 0.833252 4.83398 1.05711 4.83398 1.33325V2.27961L4.82125 2.28141C3.98884 2.39991 3.32227 2.64932 2.80035 3.20195C2.28223 3.75055 2.05184 4.44441 1.9417 5.31179C1.83397 6.16021 1.83398 7.24687 1.83398 8.63051V8.70266C1.83398 10.0863 1.83397 11.173 1.9417 12.0214C2.05184 12.8888 2.28223 13.5826 2.80035 14.1312C3.32227 14.6839 3.98884 14.9333 4.82125 15.0518C5.628 15.1666 6.65896 15.1666 7.96087 15.1666H8.0404C9.34229 15.1666 10.3733 15.1666 11.18 15.0518C12.0125 14.9333 12.679 14.6839 13.201 14.1312C13.7191 13.5826 13.9495 12.8888 14.0596 12.0214C14.1673 11.173 14.1673 10.0863 14.1673 8.70268V8.63053C14.1673 7.2469 14.1673 6.1602 14.0596 5.31179C13.9495 4.44441 13.7191 3.75055 13.201 3.20195C12.679 2.64932 12.0125 2.39991 11.18 2.28141L11.1673 2.27961V1.33325C11.1673 1.05711 10.9435 0.833252 10.6673 0.833252C10.3912 0.833252 10.1673 1.05711 10.1673 1.33325V2.19424C9.55575 2.16657 8.85053 2.16658 8.0404 2.16659H7.9609C7.15077 2.16658 6.44555 2.16657 5.83398 2.19424V1.33325ZM3.52736 3.88858C3.83529 3.56253 4.25148 3.3726 4.96218 3.27143C5.69034 3.16777 6.65006 3.16659 8.00065 3.16659C9.35123 3.16659 10.311 3.16777 11.0391 3.27143C11.7498 3.3726 12.166 3.56253 12.4739 3.88858C12.7857 4.21866 12.9702 4.67124 13.0676 5.43775C13.1664 6.21586 13.1673 7.239 13.1673 8.66659C13.1673 10.0942 13.1664 11.1173 13.0676 11.8954C12.9702 12.6619 12.7857 13.1145 12.4739 13.4446C12.166 13.7706 11.7498 13.9606 11.0391 14.0617C10.311 14.1654 9.35123 14.1666 8.00065 14.1666C6.65006 14.1666 5.69034 14.1654 4.96218 14.0617C4.25148 13.9606 3.83529 13.7706 3.52735 13.4446C3.21561 13.1145 3.03107 12.6619 2.93374 11.8954C2.83493 11.1173 2.83398 10.0942 2.83398 8.66659C2.83398 7.239 2.83493 6.21586 2.93374 5.43775C3.03107 4.67124 3.21561 4.21866 3.52736 3.88858Z" fill="#161616"/>
</svg>
