<svg width="20" height="21" viewBox="0 0 20 21" fill="none" xmlns="http://www.w3.org/2000/svg">
<path fill-rule="evenodd" clip-rule="evenodd" d="M3.95817 6.16668C3.95817 3.98055 5.73038 2.20834 7.9165 2.20834C10.1026 2.20834 11.8748 3.98055 11.8748 6.16668C11.8748 8.3528 10.1026 10.125 7.9165 10.125C5.73038 10.125 3.95817 8.3528 3.95817 6.16668ZM7.9165 3.45834C6.42073 3.45834 5.20817 4.67091 5.20817 6.16668C5.20817 7.66245 6.42073 8.87501 7.9165 8.87501C9.41228 8.87501 10.6248 7.66245 10.6248 6.16668C10.6248 4.67091 9.41228 3.45834 7.9165 3.45834Z" fill="white"/>
<path fill-rule="evenodd" clip-rule="evenodd" d="M3.91034 12.5456C6.48994 10.9848 9.76001 10.9848 12.3396 12.5456C12.4204 12.5945 12.5213 12.6523 12.6362 12.7182C13.1468 13.0107 13.9346 13.4621 14.4734 13.998C14.811 14.3337 15.1391 14.7832 15.1988 15.3386C15.2626 15.931 15.007 16.483 14.5066 16.9674C13.6593 17.7877 12.629 18.4583 11.2889 18.4583H4.96101C3.62097 18.4583 2.59068 17.7877 1.74333 16.9674C1.24299 16.483 0.987391 15.931 1.05112 15.3386C1.11086 14.7832 1.43898 14.3337 1.77653 13.998C2.31535 13.4621 3.10314 13.0107 3.61368 12.7182C3.72849 12.6524 3.82958 12.5945 3.91034 12.5456ZM11.6925 13.6151C9.51074 12.295 6.73921 12.295 4.55742 13.6151C4.43361 13.69 4.29917 13.7675 4.15924 13.8482C3.64893 14.1425 3.06557 14.4789 2.65802 14.8843C2.40587 15.1351 2.30905 15.3318 2.29395 15.4722C2.28283 15.5756 2.30246 15.7689 2.61276 16.0693C3.34934 16.7824 4.08315 17.2083 4.96101 17.2083H11.2889C12.1668 17.2083 12.9006 16.7824 13.6372 16.0693C13.9475 15.7689 13.9671 15.5756 13.956 15.4722C13.9409 15.3318 13.8441 15.1351 13.5919 14.8843C13.1844 14.4789 12.601 14.1425 12.0907 13.8482C11.9509 13.7676 11.8163 13.6899 11.6925 13.6151Z" fill="white"/>
<path d="M14.1665 3.87501C13.8213 3.87501 13.5415 4.15483 13.5415 4.50001C13.5415 4.84519 13.8213 5.12501 14.1665 5.12501L18.3332 5.12501C18.6783 5.12501 18.9582 4.84519 18.9582 4.50001C18.9582 4.15483 18.6783 3.87501 18.3332 3.87501L14.1665 3.87501Z" fill="white"/>
<path d="M13.5415 7.00001C13.5415 6.65483 13.8213 6.37501 14.1665 6.37501L18.3332 6.37501C18.6783 6.37501 18.9582 6.65483 18.9582 7.00001C18.9582 7.34519 18.6783 7.62501 18.3332 7.62501L14.1665 7.62501C13.8213 7.62501 13.5415 7.34519 13.5415 7.00001Z" fill="white"/>
<path d="M16.6665 8.87501C16.3213 8.87501 16.0415 9.15483 16.0415 9.50001C16.0415 9.84519 16.3213 10.125 16.6665 10.125H18.3332C18.6783 10.125 18.9582 9.84519 18.9582 9.50001C18.9582 9.15483 18.6783 8.87501 18.3332 8.87501H16.6665Z" fill="white"/>
</svg>
