<svg width="40" height="40" viewBox="0 0 40 40" fill="none" xmlns="http://www.w3.org/2000/svg">
    <path d="M18.32 26.666c0-.92.746-1.666 1.667-1.666h.015a1.667 1.667 0 1 1 0 3.333h-.015c-.92 0-1.667-.746-1.667-1.666zM18.75 21.666a1.25 1.25 0 1 0 2.5 0V15a1.25 1.25 0 0 0-2.5 0v6.666z" fill="#B42318"/>
    <path fill-rule="evenodd" clip-rule="evenodd" d="M17.27 3.358a8.658 8.658 0 0 1 5.46 0c1.767.587 3.154 1.978 4.547 3.932 1.39 1.948 2.924 4.663 4.902 8.164l.078.137c1.979 3.502 3.514 6.217 4.47 8.42.961 2.213 1.44 4.123 1.058 5.959a9.013 9.013 0 0 1-2.714 4.8c-1.378 1.266-3.253 1.801-5.615 2.058-2.349.255-5.421.255-9.375.255h-.163c-3.954 0-7.026 0-9.374-.255-2.362-.257-4.238-.792-5.616-2.059a9.013 9.013 0 0 1-2.713-4.799c-.382-1.836.096-3.746 1.057-5.96.957-2.202 2.492-4.917 4.47-8.419l.078-.137c1.978-3.5 3.513-6.216 4.902-8.164 1.394-1.954 2.78-3.345 4.548-3.932zm4.672 2.373a6.158 6.158 0 0 0-3.885 0c-.993.33-1.992 1.176-3.3 3.01-1.303 1.828-2.774 4.428-4.8 8.012-2.025 3.584-3.494 6.186-4.391 8.253-.9 2.072-1.125 3.39-.904 4.455a6.513 6.513 0 0 0 1.959 3.468c.779.717 1.993 1.174 4.193 1.413 2.197.24 5.133.241 9.186.241 4.052 0 6.988-.002 9.186-.24 2.2-.24 3.413-.697 4.193-1.414a6.514 6.514 0 0 0 1.958-3.468c.222-1.065-.004-2.383-.903-4.454-.898-2.068-2.367-4.67-4.392-8.254-2.026-3.584-3.497-6.184-4.8-8.012-1.308-1.834-2.307-2.68-3.3-3.01z" fill="#B42318"/>
</svg>
