<svg width="40" height="40" viewBox="0 0 40 40" fill="none" xmlns="http://www.w3.org/2000/svg">
    <path d="M16.945 24.83c.23.365.63.585 1.058.585l.002.002.035-.001h.035c.455-.028.86-.298 1.056-.708.027-.06 2.872-5.903 6.45-7.766a1.25 1.25 0 0 0-1.155-2.219c-3.008 1.565-5.425 5.135-6.658 7.25a11.833 11.833 0 0 0-2.167-1.585 1.25 1.25 0 0 0-1.197 2.195l.005.003c.098.056 1.748.99 2.536 2.244z" fill="#067647"/>
    <path fill-rule="evenodd" clip-rule="evenodd" d="M15.773 35.334c1.013 1.09 2.4 2.581 4.23 2.581 1.83 0 3.216-1.491 4.23-2.581l.029-.032c.172-.185.335-.36.482-.507.922-.92 1.37-1.107 2.672-1.107.192 0 .397.007.61.013h.022c1.365.04 3.233.094 4.486-1.148 1.264-1.253 1.21-3.135 1.17-4.508v-.023c-.007-.211-.013-.417-.013-.608 0-1.302.2-1.766 1.195-2.76C36.84 22.7 37.918 21.621 37.918 20c0-1.622-1.077-2.698-3.032-4.653-.993-.995-1.195-1.459-1.195-2.76 0-.192.006-.397.013-.61v-.022c.04-1.375.094-3.255-1.17-4.51-1.25-1.24-3.112-1.187-4.477-1.148h-.039c-.21.007-.412.013-.602.013-1.14 0-1.888-.323-2.76-1.195-1.953-1.955-3.032-3.032-4.653-3.032-1.622 0-2.699 1.077-4.653 3.032-.872.871-1.62 1.195-2.76 1.195-.193 0-.395-.006-.606-.012l-.026-.001c-1.375-.04-3.255-.094-4.51 1.17-1.242 1.253-1.189 3.121-1.149 4.485l.001.031c.007.21.013.412.013.602 0 1.14-.324 1.888-1.195 2.76-1.955 1.953-3.032 3.032-3.032 4.653 0 1.622 1.077 2.699 3.032 4.654.993.995 1.195 1.458 1.195 2.76 0 .192-.007.397-.013.61v.021c-.04 1.374-.094 3.255 1.171 4.51 1.253 1.242 3.122 1.189 4.487 1.149h.022c.212-.007.418-.014.61-.014 1.3 0 1.75.185 2.67 1.105.156.155.33.342.513.54zm1.255-2.309c-1.394-1.39-2.472-1.837-4.439-1.837l-.003-.001c-.213 0-.44.006-.676.012l-.027.001c-.965.028-2.164.062-2.655-.425-.494-.492-.46-1.695-.432-2.663v-.027c.007-.236.013-.463.013-.677 0-1.966-.495-3.091-1.928-4.526l-.02-.02c-1.421-1.423-2.278-2.281-2.278-2.867 0-.588.865-1.453 2.298-2.886 1.333-1.332 1.928-2.729 1.928-4.527 0-.214-.006-.44-.012-.675l-.001-.032c-.028-.962-.063-2.16.425-2.652.492-.493 1.695-.46 2.663-.431h.027c.236.007.463.013.677.013 1.796 0 3.193-.595 4.526-1.928 1.434-1.434 2.299-2.299 2.887-2.299.588 0 1.453.865 2.886 2.298 1.332 1.334 2.729 1.929 4.527 1.929.214 0 .44-.006.675-.012l.032-.001c.962-.029 2.16-.064 2.652.425.493.491.46 1.695.431 2.663v.028c-.007.235-.013.462-.013.675 0 1.967.495 3.092 1.928 4.527l.02.02c1.421 1.423 2.279 2.281 2.279 2.867 0 .588-.839 1.428-2.299 2.886-1.46 1.459-1.928 2.559-1.928 4.527 0 .213.006.44.012.676l.001.027c.029.967.064 2.17-.431 2.662-.492.488-1.692.453-2.655.425h-.028c-.235-.007-.462-.013-.676-.013-1.966 0-3.045.446-4.438 1.838-.176.176-.353.367-.54.568l-.042.044c-.7.752-1.654 1.776-2.391 1.776-.74 0-1.699-1.03-2.399-1.783l-.083-.09c-.17-.18-.332-.353-.493-.515z" fill="#067647"/>
</svg>
