<svg width="48" height="48" viewBox="0 0 48 48" fill="none" xmlns="http://www.w3.org/2000/svg">
    <path d="M16 .5h16C40.56.5 47.5 7.44 47.5 16v16c0 8.56-6.94 15.5-15.5 15.5H16C7.44 47.5.5 40.56.5 32V16C.5 7.44 7.44.5 16 .5z" fill="#074D31"/>
    <path d="M16 .5h16C40.56.5 47.5 7.44 47.5 16v16c0 8.56-6.94 15.5-15.5 15.5H16C7.44 47.5.5 40.56.5 32V16C.5 7.44 7.44.5 16 .5z" stroke="#D2D6DB"/>
    <path fill-rule="evenodd" clip-rule="evenodd" d="M26.303 24.5h3.06c.288 0 .553 0 .768.029.237.032.488.107.694.313.206.206.28.456.313.693.028.215.028.48.028.768v3.06c0 .289 0 .553-.029.768-.031.237-.106.488-.312.694-.206.206-.457.28-.694.313-.215.029-.48.029-.768.029h-3.06c-.288 0-.553 0-.768-.03-.237-.031-.488-.106-.694-.312-.206-.206-.28-.457-.313-.694a6.186 6.186 0 0 1-.028-.768v-3.06c0-.288 0-.553.029-.768.031-.237.106-.487.312-.693.206-.206.457-.281.694-.313.215-.03.48-.03.768-.03zm.03 1c-.328 0-.524.001-.665.02-.05.003-.148.037-.148.148-.02.14-.02.337-.02.665v3c0 .329 0 .525.02.665.008.05.049.149.148.149.14.019.337.02.665.02h3c.328 0 .524-.002.665-.02.05.003.148-.022.148-.149.02-.14.02-.336.02-.665v-3c0-.328 0-.524-.02-.665 0-.132-.099-.154-.148-.148a5.747 5.747 0 0 0-.665-.02h-3zM26.303 16.833h3.06c.288 0 .553 0 .768.03.237.031.488.106.694.312.206.206.28.456.313.694.028.215.028.48.028.768v3.06c0 .288 0 .553-.029.768-.031.237-.106.487-.312.693-.206.206-.457.281-.694.313-.215.029-.48.029-.768.029h-3.06c-.288 0-.553 0-.768-.029-.237-.032-.488-.107-.694-.313-.206-.206-.28-.456-.313-.693a6.185 6.185 0 0 1-.028-.769v-3.06c0-.288 0-.552.029-.767.031-.238.106-.488.312-.694.206-.206.457-.281.694-.313.215-.029.48-.029.768-.029zm.03 1c-.328 0-.524.001-.665.02-.05.003-.148.038-.148.149-.02.14-.02.336-.02.665v3c0 .328 0 .524.02.664.008.05.049.149.148.149.14.019.337.02.665.02h3c.328 0 .524-.001.665-.02.05.003.148-.022.148-.149.02-.14.02-.336.02-.664v-3c0-.329 0-.525-.02-.665 0-.133-.099-.155-.148-.149a5.754 5.754 0 0 0-.665-.02h-3zM21.696 16.833h-3.06c-.288 0-.553 0-.768.03-.237.031-.487.106-.693.312-.206.206-.281.456-.313.694-.03.215-.029.48-.029.768v3.06c0 .288 0 .553.029.768.032.237.107.487.313.693.206.206.456.281.693.313.215.029.48.029.769.029h3.06c.288 0 .552 0 .768-.029.236-.032.487-.107.693-.313.206-.206.281-.456.313-.693.029-.215.029-.48.029-.769v-3.06c0-.288 0-.552-.03-.767-.031-.238-.106-.488-.312-.694-.206-.206-.457-.281-.694-.313a6.186 6.186 0 0 0-.768-.029zm-3.695 1.02c.14-.019.337-.02.665-.02h3c.329 0 .525.001.665.02.05-.006.149.016.149.149.019.14.02.336.02.665v3c0 .328-.001.524-.02.664 0 .127-.1.152-.149.149-.14.019-.336.02-.665.02h-3c-.328 0-.524-.001-.665-.02-.099 0-.14-.099-.148-.149a5.747 5.747 0 0 1-.02-.664v-3c0-.329.001-.525.02-.665 0-.111.099-.146.148-.149zM18.637 24.5h3.06c.288 0 .552 0 .768.029.236.032.487.107.693.313.206.206.281.456.313.693.029.215.029.48.029.768v3.06c0 .289 0 .553-.03.768-.031.237-.106.488-.312.694-.206.206-.457.28-.694.313-.215.029-.48.029-.768.029h-3.06c-.288 0-.553 0-.768-.03-.237-.031-.487-.106-.693-.312-.206-.206-.281-.457-.313-.694-.03-.215-.029-.48-.029-.768v-3.06c0-.288 0-.553.029-.768.032-.237.107-.487.313-.693.206-.206.456-.281.693-.313.215-.03.48-.03.769-.03zm.03 1c-.33 0-.525.001-.666.02-.049.003-.148.037-.148.148-.019.14-.02.337-.02.665v3c0 .329.001.525.02.665.008.05.049.149.148.149.14.019.337.02.665.02h3c.329 0 .525-.002.665-.02.05.003.149-.022.149-.149.019-.14.02-.336.02-.665v-3c0-.328-.001-.524-.02-.665 0-.132-.1-.154-.149-.148a5.746 5.746 0 0 0-.665-.02h-3z" fill="#fff"/>
</svg>
