<svg width="20" height="20" viewBox="0 0 20 20" fill="none" xmlns="http://www.w3.org/2000/svg">
<path fill-rule="evenodd" clip-rule="evenodd" d="M9.99935 18.9582C5.0518 18.9582 1.04102 14.9474 1.04102 9.99984C1.04102 5.05229 5.0518 1.0415 9.99935 1.0415C14.9469 1.0415 18.9577 5.05229 18.9577 9.99984C18.9577 14.9474 14.9469 18.9582 9.99935 18.9582ZM2.29102 9.99984C2.29102 14.257 5.74215 17.7082 9.99935 17.7082C11.903 17.7082 13.6454 17.0181 14.9902 15.8746L4.12463 5.009C2.98105 6.35379 2.29102 8.09623 2.29102 9.99984ZM15.8741 14.9907C17.0177 13.6459 17.7077 11.9034 17.7077 9.99984C17.7077 5.74264 14.2565 2.2915 9.99935 2.2915C8.09574 2.2915 6.3533 2.98154 5.00851 4.12512L15.8741 14.9907Z" fill="#B42318"/>
</svg>
