<svg width="20" height="20" viewBox="0 0 20 20" fill="none" xmlns="http://www.w3.org/2000/svg">
<path d="M10.6243 2.5C10.6243 2.15482 10.3445 1.875 9.99935 1.875C9.65417 1.875 9.37435 2.15482 9.37435 2.5V10.3849L9.3693 10.379C9.19374 10.1718 9.02184 9.95284 8.86109 9.74807L8.82379 9.70058C8.6636 9.49663 8.49508 9.28237 8.36419 9.14772C8.12361 8.90019 7.72792 8.89457 7.4804 9.13516C7.23288 9.37574 7.22725 9.77143 7.46784 10.019C7.54176 10.095 7.66311 10.2465 7.84077 10.4727L7.87999 10.5226C8.03838 10.7244 8.22419 10.9611 8.41563 11.1871C8.6208 11.4292 8.85044 11.6807 9.08001 11.8762C9.19504 11.9742 9.32471 12.0708 9.4642 12.1455C9.59873 12.2175 9.78411 12.2917 9.99935 12.2917C10.2146 12.2917 10.4 12.2175 10.5345 12.1455C10.674 12.0708 10.8037 11.9742 10.9187 11.8762C11.1483 11.6807 11.3779 11.4292 11.5831 11.1871C11.7745 10.9612 11.9603 10.7245 12.1187 10.5227L12.1579 10.4727C12.3356 10.2465 12.4569 10.095 12.5309 10.019C12.7714 9.77143 12.7658 9.37574 12.5183 9.13516C12.2708 8.89457 11.8751 8.90019 11.6345 9.14771C11.5036 9.28237 11.3351 9.49663 11.1749 9.70058L11.1377 9.74803C10.9769 9.9528 10.805 10.1718 10.6294 10.379L10.6243 10.3849V2.5Z" fill="white"/>
<path d="M4.8134 8.12456C5.15835 8.11222 5.42799 7.82257 5.41566 7.47762C5.40332 7.13266 5.11367 6.86302 4.76871 6.87536C2.77917 6.94652 0.984477 8.45709 1.04238 10.5872C1.05568 11.0766 1.23519 11.6488 1.51079 12.5273L1.54746 12.6443C2.32035 15.1104 3.69251 17.4664 6.85228 18.0241C7.42384 18.125 8.05646 18.125 9.15073 18.125H10.848C11.9423 18.125 12.5749 18.125 13.1465 18.0241C16.3063 17.4664 17.6784 15.1104 18.4513 12.6443L18.488 12.5274C18.7636 11.6488 18.9431 11.0766 18.9564 10.5872C19.0143 8.45708 17.2196 6.94652 15.23 6.87536C14.8851 6.86302 14.5954 7.13266 14.5831 7.47762C14.5708 7.82257 14.8404 8.11222 15.1854 8.12456C16.6253 8.17606 17.7426 9.23768 17.7068 10.5533C17.6989 10.8442 17.5833 11.2341 17.2585 12.2704C16.5367 14.5735 15.3969 16.3576 12.9292 16.7932C12.479 16.8726 11.963 16.875 10.7746 16.875H9.22414C8.03574 16.875 7.51976 16.8726 7.06956 16.7932C4.60191 16.3576 3.46204 14.5735 2.74025 12.2704C2.41543 11.234 2.29983 10.8442 2.29192 10.5533C2.25616 9.23768 3.37343 8.17606 4.8134 8.12456Z" fill="white"/>
</svg>
