<svg width="20" height="20" viewBox="0 0 20 20" fill="none" xmlns="http://www.w3.org/2000/svg">
    <path fill-rule="evenodd" clip-rule="evenodd" d="M12.67 1.495a3.213 3.213 0 0 1 3.208-.048c.416.231.796.62 1.361 1.197l.154.157c.567.579.946.966 1.171 1.39a3.37 3.37 0 0 1-.047 3.244c-.237.417-.627.793-1.21 1.354l-8.016 7.72c-1.151 1.109-1.86 1.792-2.758 2.143-.898.35-1.876.325-3.457.284l-.405-.011c-.232-.006-.466-.012-.66-.044-.222-.037-.486-.123-.694-.36-.207-.234-.26-.505-.273-.728-.01-.197.008-.433.026-.67l.034-.438c.108-1.385.174-2.232.508-3.002.335-.771.907-1.39 1.84-2.402l7.891-8.548c.548-.595.917-.994 1.326-1.238zM15.27 2.54a1.964 1.964 0 0 0-1.963.03c-.232.138-.47.386-1.121 1.092l-.068.073 4.235 4.236.007-.007c.69-.665.934-.909 1.07-1.148a2.12 2.12 0 0 0 .03-2.038c-.13-.244-.366-.495-1.037-1.18-.672-.687-.917-.927-1.153-1.058zM4.45 12.044l6.82-7.39 4.184 4.184-6.93 6.674C7.24 16.75 6.716 17.239 6.08 17.488c-.636.248-1.343.24-3.109.194l-.233-.006a12.65 12.65 0 0 1-.446-.02c0-.1.01-.241.028-.469l.023-.289c.12-1.538.176-2.163.417-2.717.24-.553.654-1.013 1.69-2.137z" fill="#161616"/>
    <path d="M11.666 17.708a.625.625 0 1 0 0 1.25h6.667a.625.625 0 1 0 0-1.25h-6.667z" fill="#161616"/>
</svg>
