<svg width="64" height="64" viewBox="0 0 64 64" fill="none" xmlns="http://www.w3.org/2000/svg">
    <path d="M4 .5h56A3.5 3.5 0 0 1 63.5 4v56a3.5 3.5 0 0 1-3.5 3.5H4A3.5 3.5 0 0 1 .5 60V4A3.5 3.5 0 0 1 4 .5z" fill="#F9FAFB"/>
    <path d="M4 .5h56A3.5 3.5 0 0 1 63.5 4v56a3.5 3.5 0 0 1-3.5 3.5H4A3.5 3.5 0 0 1 .5 60V4A3.5 3.5 0 0 1 4 .5z" stroke="#E5E7EB"/>
    <path fill-rule="evenodd" clip-rule="evenodd" d="m39.367 12.802-.13-.054c-1.25-.518-2.414-1-3.493-1.174-1.257-.202-2.405.002-3.6.74-.096.06-.239.155-.331.221-1.222.881-1.808 2.033-2.074 3.415-.239 1.239-.239 2.777-.239 4.548v4.461c0 1.831 0 3.355.163 4.565.171 1.275.548 2.422 1.47 3.344.921.921 2.068 1.298 3.344 1.47 1.209.162 2.733.162 4.564.162h4.462c1.77 0 3.309 0 4.547-.238 1.383-.267 2.534-.853 3.415-2.074.067-.093.162-.236.222-.333.737-1.194.942-2.342.74-3.599-.174-1.079-.656-2.242-1.175-3.493l-.053-.13a21.864 21.864 0 0 0-11.832-11.831zm-5.646 2.064c.58-.358.998-.418 1.547-.33.69.11 1.526.447 2.95 1.037a18.864 18.864 0 0 1 10.209 10.209c.59 1.424.927 2.26 1.038 2.95.088.549.027.968-.33 1.547-.023.036-.078.12-.103.154-.338.468-.74.727-1.55.883-.922.178-2.168.184-4.115.184h-4.222c-1.962 0-3.283-.003-4.269-.136-.942-.126-1.351-.346-1.622-.617-.271-.272-.491-.68-.618-1.623-.133-.986-.136-2.307-.136-4.269v-4.221c0-1.947.007-3.194.184-4.116.156-.81.415-1.212.884-1.55.034-.024.117-.08.153-.102z" fill="#161616"/>
    <path d="M24.714 16.374a1.5 1.5 0 0 0-1.202-2.749c-13.01 5.69-16.048 23.377-6.165 33.168 10.093 10 27.627 6.263 33.035-6.554a1.5 1.5 0 0 0-2.764-1.167c-4.597 10.895-19.601 14.069-28.16 5.59-8.403-8.325-5.78-23.462 5.256-28.288z" fill="#161616"/>
</svg>
