<svg width="40" height="40" viewBox="0 0 40 40" fill="none" xmlns="http://www.w3.org/2000/svg">
<path d="M0 20C0 8.95431 8.95431 0 20 0V0C31.0457 0 40 8.95431 40 20V20C40 31.0457 31.0457 40 20 40V40C8.95431 40 0 31.0457 0 20V20Z" fill="#EFF8FF"/>
<path d="M19.5762 19.7927C19.5183 19.7918 19.4514 19.7918 19.3688 19.7918C19.0236 19.7918 18.7438 19.5119 18.7438 19.1668C18.7438 18.8216 19.0236 18.5418 19.3688 18.5418L19.3975 18.5418C19.5684 18.5417 19.7533 18.5416 19.9093 18.5626C20.0921 18.5872 20.3256 18.6504 20.5221 18.8469C20.7186 19.0434 20.7817 19.2769 20.8063 19.4596C20.8273 19.6156 20.8272 19.8005 20.8272 19.9714L20.8271 24.1668C20.8271 24.5119 20.5473 24.7918 20.2021 24.7918C19.857 24.7918 19.5771 24.5119 19.5771 24.1668V20.0001C19.5771 19.9175 19.5771 19.8506 19.5762 19.7927Z" fill="#175CD3"/>
<path d="M19.9938 15.8334C19.5336 15.8334 19.1605 16.2065 19.1605 16.6667C19.1605 17.127 19.5336 17.5001 19.9938 17.5001H20.0013C20.4615 17.5001 20.8346 17.127 20.8346 16.6667C20.8346 16.2065 20.4615 15.8334 20.0013 15.8334H19.9938Z" fill="#175CD3"/>
<path fill-rule="evenodd" clip-rule="evenodd" d="M11.042 20.0001C11.042 24.9476 15.0528 28.9584 20.0003 28.9584C24.9479 28.9584 28.9587 24.9476 28.9587 20.0001C28.9587 15.0525 24.9479 11.0417 20.0003 11.0417C15.0528 11.0417 11.042 15.0525 11.042 20.0001ZM20.0003 27.7084C15.7431 27.7084 12.292 24.2573 12.292 20.0001C12.292 15.7429 15.7431 12.2917 20.0003 12.2917C24.2575 12.2917 27.7087 15.7429 27.7087 20.0001C27.7087 24.2573 24.2575 27.7084 20.0003 27.7084Z" fill="#175CD3"/>
</svg>
