<svg width="20" height="20" viewBox="0 0 20 20" fill="none" xmlns="http://www.w3.org/2000/svg">
    <path fill-rule="evenodd" clip-rule="evenodd" d="M3.959 5.833a3.958 3.958 0 1 1 7.916 0 3.958 3.958 0 0 1-7.916 0zm3.958-2.708a2.708 2.708 0 1 0 0 5.417 2.708 2.708 0 0 0 0-5.417zM3.91 12.212a8.173 8.173 0 0 1 8.43 0c.08.05.182.107.297.173.51.292 1.298.744 1.837 1.28.338.335.666.785.725 1.34.064.593-.192 1.145-.692 1.629-.847.82-1.877 1.491-3.218 1.491H4.962c-1.34 0-2.37-.67-3.218-1.491-.5-.484-.756-1.036-.692-1.629.06-.555.387-1.005.725-1.34.539-.536 1.327-.988 1.837-1.28.115-.066.216-.124.297-.173zm7.783 1.07a6.923 6.923 0 0 0-7.135 0c-.124.075-.258.152-.398.233-.51.294-1.094.63-1.501 1.036-.253.25-.35.447-.365.588-.01.103.009.297.32.597.736.713 1.47 1.139 2.348 1.139h6.327c.878 0 1.612-.426 2.349-1.14.31-.3.33-.493.319-.596-.016-.14-.112-.337-.365-.588-.407-.405-.99-.742-1.5-1.036-.14-.08-.275-.158-.399-.233z" fill="#161616"/>
    <path d="M14.167 3.542a.625.625 0 1 0 0 1.25h4.167a.625.625 0 0 0 0-1.25h-4.167zM13.542 6.667c0-.346.28-.625.625-.625h4.167a.625.625 0 0 1 0 1.25h-4.167a.625.625 0 0 1-.625-.625zM16.667 8.542a.625.625 0 1 0 0 1.25h1.667a.625.625 0 0 0 0-1.25h-1.667z" fill="#161616"/>
</svg>
