<svg width="48" height="48" viewBox="0 0 48 48" fill="none" xmlns="http://www.w3.org/2000/svg">
    <path d="M0 8a8 8 0 0 1 8-8h32a8 8 0 0 1 8 8v32a8 8 0 0 1-8 8H8a8 8 0 0 1-8-8V8z" fill="#F3FCF6"/>
    <path d="M15.75 24c0-4.512 3.916-8.25 8.85-8.25.441 0 .875.03 1.298.088a.75.75 0 0 0 .204-1.486 11.05 11.05 0 0 0-1.502-.102c-5.67 0-10.35 4.32-10.35 9.75s4.68 9.75 10.35 9.75c.51 0 1.011-.035 1.502-.102a.75.75 0 1 0-.204-1.486 9.56 9.56 0 0 1-1.298.088c-4.934 0-8.85-3.738-8.85-8.25z" fill="#1B8354"/>
    <path d="M31.023 20.962a.75.75 0 1 0-1.046 1.076c.162.157.419.36.664.551l.057.045c.245.193.508.4.757.61l.007.006H23a.75.75 0 0 0 0 1.5h8.462l-.007.006c-.249.21-.512.417-.757.61l-.057.045a9.422 9.422 0 0 0-.664.551.75.75 0 1 0 1.046 1.076c.091-.089.273-.235.544-.448l.06-.047c.242-.19.526-.413.798-.642.29-.247.592-.522.827-.798.117-.138.233-.293.323-.46A1.37 1.37 0 0 0 33.75 24c0-.258-.089-.48-.175-.642a2.667 2.667 0 0 0-.324-.461 7.363 7.363 0 0 0-.826-.797c-.272-.23-.556-.453-.798-.643l-.06-.047a8.626 8.626 0 0 1-.544-.448z" fill="#1B8354"/>
</svg>
