<svg width="24" height="24" viewBox="0 0 24 24" fill="none" xmlns="http://www.w3.org/2000/svg">
    <path fill-rule="evenodd" clip-rule="evenodd" d="M12 8.25a2.75 2.75 0 0 0-.75 5.396V16a.75.75 0 0 0 1.5 0v-2.354A2.751 2.751 0 0 0 12 8.25zM10.75 11a1.25 1.25 0 1 1 2.5 0 1.25 1.25 0 0 1-2.5 0z" fill="#FECDCA"/>
    <path fill-rule="evenodd" clip-rule="evenodd" d="M12 1.25C6.063 1.25 1.25 6.063 1.25 12S6.063 22.75 12 22.75 22.75 17.937 22.75 12 17.937 1.25 12 1.25zM2.75 12a9.25 9.25 0 1 1 18.5 0 9.25 9.25 0 0 1-18.5 0z" fill="#FECDCA"/>
</svg>
