<svg width="40" height="40" viewBox="0 0 40 40" fill="none" xmlns="http://www.w3.org/2000/svg">
<path d="M0 20C0 8.95431 8.95431 0 20 0V0C31.0457 0 40 8.95431 40 20V20C40 31.0457 31.0457 40 20 40V40C8.95431 40 0 31.0457 0 20V20Z" fill="#ECFDF3"/>
<path d="M23.7944 17.9224C24.0276 17.668 24.0104 17.2726 23.756 17.0394C23.5015 16.8061 23.1062 16.8233 22.8729 17.0778L18.7307 21.5966L17.1089 19.9748C16.8649 19.7307 16.4691 19.7307 16.2251 19.9748C15.981 20.2189 15.981 20.6146 16.2251 20.8587L18.3084 22.942C18.4289 23.0626 18.5935 23.1286 18.7639 23.1249C18.9343 23.1212 19.0959 23.0481 19.211 22.9224L23.7944 17.9224Z" fill="#067647"/>
<path fill-rule="evenodd" clip-rule="evenodd" d="M20.0003 28.9584C15.0528 28.9584 11.042 24.9476 11.042 20.0001C11.042 15.0525 15.0528 11.0417 20.0003 11.0417C24.9479 11.0417 28.9587 15.0525 28.9587 20.0001C28.9587 24.9476 24.9479 28.9584 20.0003 28.9584ZM12.292 20.0001C12.292 24.2573 15.7431 27.7084 20.0003 27.7084C24.2575 27.7084 27.7087 24.2573 27.7087 20.0001C27.7087 15.7429 24.2575 12.2917 20.0003 12.2917C15.7431 12.2917 12.292 15.7429 12.292 20.0001Z" fill="#067647"/>
</svg>
