<svg width="20" height="20" viewBox="0 0 20 20" fill="none" xmlns="http://www.w3.org/2000/svg">
    <path fill-rule="evenodd" clip-rule="evenodd" d="M10 13.125a3.125 3.125 0 1 1 0-6.25 3.125 3.125 0 0 1 0 6.25zM8.125 10a1.875 1.875 0 1 0 3.75 0 1.875 1.875 0 0 0-3.75 0z" fill="#161616"/>
    <path fill-rule="evenodd" clip-rule="evenodd" d="M10 3.542c-2.142 0-3.978.943-5.4 2.052-1.422 1.11-2.474 2.423-3.062 3.247l-.044.062c-.211.294-.452.629-.452 1.097 0 .469.24.804.452 1.097l.044.062c.588.825 1.64 2.136 3.063 3.247 1.421 1.11 3.257 2.052 5.4 2.052 2.142 0 3.978-.942 5.4-2.052 1.422-1.11 2.473-2.422 3.061-3.247l.045-.062c.21-.293.452-.628.452-1.097 0-.468-.241-.803-.452-1.097l-.045-.062c-.588-.824-1.64-2.136-3.062-3.247-1.421-1.11-3.258-2.052-5.4-2.052zM2.556 9.567c.55-.771 1.521-1.978 2.814-2.987C6.664 5.57 8.235 4.792 10 4.792c1.766 0 3.337.778 4.63 1.788 1.293 1.009 2.265 2.216 2.815 2.987.136.191.2.284.24.358.024.048.024.06.024.073v.004c0 .013 0 .026-.025.073a3.569 3.569 0 0 1-.24.358c-.55.771-1.52 1.979-2.813 2.988-1.294 1.01-2.865 1.787-4.63 1.787-1.766 0-3.337-.777-4.631-1.787-1.293-1.01-2.264-2.216-2.814-2.988-.136-.19-.201-.284-.24-.358-.024-.047-.024-.06-.024-.073v-.004c0-.013 0-.025.024-.073a3.56 3.56 0 0 1 .24-.358z" fill="#161616"/>
</svg>
