<svg width="40" height="40" viewBox="0 0 40 40" fill="none" xmlns="http://www.w3.org/2000/svg">
    <path d="M0 20C0 8.954 8.954 0 20 0s20 8.954 20 20-8.954 20-20 20S0 31.046 0 20z" fill="#FFFAEB"/>
    <path d="M19.16 23.334c0-.46.374-.834.834-.834H20a.833.833 0 0 1 0 1.667h-.007a.833.833 0 0 1-.834-.834zM19.375 20.834a.625.625 0 1 0 1.25 0V17.5a.625.625 0 1 0-1.25 0v3.334z" fill="#B54708"/>
    <path fill-rule="evenodd" clip-rule="evenodd" d="M18.635 11.68a4.33 4.33 0 0 1 2.73 0c.884.293 1.577.988 2.274 1.965.695.974 1.462 2.332 2.451 4.082l.039.069c.99 1.75 1.757 3.108 2.235 4.21.48 1.106.72 2.061.529 2.98a4.507 4.507 0 0 1-1.357 2.399c-.689.633-1.627.9-2.808 1.03-1.174.127-2.71.127-4.687.127h-.081c-1.977 0-3.513 0-4.688-.128-1.18-.128-2.119-.396-2.807-1.03a4.507 4.507 0 0 1-1.357-2.399c-.191-.918.048-1.873.529-2.98.478-1.1 1.245-2.458 2.235-4.209l.039-.069c.989-1.75 1.756-3.108 2.45-4.082.697-.977 1.39-1.672 2.274-1.966zm2.336 1.186a3.079 3.079 0 0 0-1.942 0c-.497.165-.996.588-1.65 1.505-.651.914-1.387 2.214-2.4 4.006-1.012 1.792-1.747 3.093-2.196 4.127-.45 1.035-.562 1.694-.451 2.227.14.67.483 1.278.979 1.734.39.358.996.587 2.096.707 1.1.119 2.567.12 4.593.12s3.494-.001 4.593-.12c1.1-.12 1.707-.349 2.097-.707.496-.456.84-1.063.98-1.734.11-.533-.003-1.192-.453-2.228-.448-1.033-1.183-2.334-2.195-4.126-1.013-1.792-1.749-3.092-2.4-4.006-.654-.917-1.154-1.34-1.65-1.505z" fill="#B54708"/>
</svg>
