<svg width="40" height="40" viewBox="0 0 40 40" fill="none" xmlns="http://www.w3.org/2000/svg">
<path d="M0 20C0 8.95431 8.95431 0 20 0C31.0457 0 40 8.95431 40 20C40 31.0457 31.0457 40 20 40C8.95431 40 0 31.0457 0 20Z" fill="#DC6803"/>
<path d="M19.1595 23.3333C19.1595 22.873 19.5326 22.4999 19.9928 22.4999H20.0003C20.4606 22.4999 20.8337 22.873 20.8337 23.3333C20.8337 23.7935 20.4606 24.1666 20.0003 24.1666H19.9928C19.5326 24.1666 19.1595 23.7935 19.1595 23.3333Z" fill="white"/>
<path d="M19.3743 20.8333C19.3743 21.1784 19.6542 21.4583 19.9993 21.4583C20.3445 21.4583 20.6243 21.1784 20.6243 20.8333V17.4999C20.6243 17.1547 20.3445 16.8749 19.9993 16.8749C19.6542 16.8749 19.3743 17.1547 19.3743 17.4999V20.8333Z" fill="white"/>
<path fill-rule="evenodd" clip-rule="evenodd" d="M18.6343 11.6791C19.5214 11.3846 20.4773 11.3846 21.3644 11.6791C22.2477 11.9723 22.9413 12.6678 23.6381 13.6449C24.3326 14.6188 25.1 15.9766 26.0892 17.727L26.128 17.7957C27.1174 19.5464 27.8848 20.9042 28.363 22.0053C28.8435 23.1118 29.0829 24.0672 28.8919 24.985C28.6996 25.9091 28.2255 26.7495 27.535 27.3847C26.8462 28.0183 25.9083 28.2855 24.7273 28.4139C23.5531 28.5416 22.017 28.5416 20.04 28.5416H19.9587C17.9817 28.5416 16.4456 28.5416 15.2714 28.4139C14.0904 28.2855 13.1525 28.0183 12.4637 27.3847C11.7732 26.7495 11.2991 25.9091 11.1068 24.985C10.9158 24.0672 11.1552 23.1118 11.6357 22.0053C12.1139 20.9042 12.8813 19.5463 13.8707 17.7957L13.9095 17.727C14.8987 15.9766 15.6661 14.6188 16.3606 13.6449C17.0574 12.6678 17.751 11.9723 18.6343 11.6791ZM20.9706 12.8654C20.3392 12.6559 19.6595 12.6559 19.0281 12.8654C18.5315 13.0303 18.0322 13.4537 17.3783 14.3706C16.7266 15.2844 15.991 16.5845 14.9782 18.3765C13.9655 20.1685 13.2312 21.4695 12.7823 22.5033C12.3325 23.5388 12.2199 24.1982 12.3306 24.7304C12.4703 25.4017 12.814 26.0084 13.3099 26.4647C13.6995 26.823 14.3064 27.0517 15.4065 27.1713C16.5052 27.2907 17.9732 27.2916 19.9994 27.2916C22.0255 27.2916 23.4936 27.2907 24.5922 27.1713C25.6923 27.0517 26.2992 26.823 26.6888 26.4647C27.1847 26.0084 27.5284 25.4017 27.6681 24.7304C27.7788 24.1982 27.6662 23.5388 27.2164 22.5033C26.7675 21.4695 26.0332 20.1685 25.0205 18.3765C24.0077 16.5845 23.2721 15.2844 22.6204 14.3706C21.9665 13.4537 21.4672 13.0303 20.9706 12.8654Z" fill="white"/>
</svg>
