<svg width="16" height="16" viewBox="0 0 16 16" fill="none" xmlns="http://www.w3.org/2000/svg">
    <path fill-rule="evenodd" clip-rule="evenodd" d="M6 1.833a3.167 3.167 0 1 0 0 6.334 3.167 3.167 0 0 0 0-6.333zM3.834 5a2.167 2.167 0 1 1 4.333 0 2.167 2.167 0 0 1-4.333 0zM9.249 10.3c-1.99-1.067-4.507-1.067-6.497 0-.063.034-.14.073-.229.118-.395.2-1.007.511-1.427.88-.259.229-.536.554-.588.977-.056.463.174.87.563 1.203.663.569 1.457 1.022 2.48 1.022H8.45c1.022 0 1.817-.453 2.48-1.022.389-.333.618-.74.562-1.203-.051-.423-.329-.748-.588-.976-.42-.37-1.032-.68-1.427-.881a11.91 11.91 0 0 1-.228-.118zM1.722 12.72c-.236-.202-.223-.306-.221-.323.007-.054.058-.173.256-.347.313-.275.762-.505 1.157-.707.109-.055.213-.109.31-.16 1.696-.909 3.857-.909 5.552 0l.31.16c.395.202.845.432 1.157.707.198.174.25.292.256.347.002.016.015.12-.22.323-.563.483-1.134.781-1.83.781H3.552c-.695 0-1.266-.298-1.83-.781z" fill="#161616"/>
    <path d="M10.43 3.87c.12-.024.245-.037.373-.037.983 0 1.697.715 1.697 1.5 0 .786-.714 1.5-1.697 1.5-.128 0-.253-.012-.372-.036a.5.5 0 1 0-.195.981c.183.036.373.056.567.056 1.444 0 2.697-1.077 2.697-2.5 0-1.424-1.252-2.5-2.697-2.5-.194 0-.384.019-.567.055a.5.5 0 0 0 .195.98zM11.667 9.5a.5.5 0 1 0 0 1c.207 0 .565.063.986.193.413.128.845.31 1.194.519.369.22.569.427.632.572.025.056.024.09.016.117-.01.035-.043.111-.166.222-.5.445-.995.71-1.591.71h-.327a.5.5 0 0 0 0 1h.327c.937 0 1.66-.432 2.256-.964.224-.2.393-.434.466-.706a1.161 1.161 0 0 0-.065-.782c-.193-.439-.62-.779-1.034-1.027a6.675 6.675 0 0 0-1.412-.616c-.463-.143-.931-.238-1.282-.238z" fill="#161616"/>
</svg>
