<svg width="16" height="16" viewBox="0 0 16 16" fill="none" xmlns="http://www.w3.org/2000/svg">
    <path d="M7.333 11.333c0-.368.298-.667.667-.667h.006a.667.667 0 0 1 0 1.334H8a.667.667 0 0 1-.667-.667z" fill="#161616"/>
    <path fill-rule="evenodd" clip-rule="evenodd" d="m2.166 6.894-.487.467a.5.5 0 1 1-.692-.722l2.922-2.802c.866-.83 1.553-1.489 2.162-1.935.628-.46 1.23-.735 1.929-.735.699 0 1.3.276 1.928.735.61.446 1.296 1.104 2.162 1.935l2.922 2.802a.5.5 0 1 1-.692.722l-.487-.467v2.143c0 1.226 0 2.196-.102 2.955-.105.782-.327 1.415-.825 1.914-.5.499-1.132.72-1.914.825-.76.102-1.73.102-2.955.102h-.075c-1.225 0-2.196 0-2.955-.102-.782-.105-1.414-.326-1.913-.825-.5-.5-.72-1.132-.826-1.914-.102-.759-.102-1.73-.102-2.955V6.893zm2.408-2.31c.9-.862 1.538-1.473 2.088-1.875.537-.393.932-.542 1.338-.542.405 0 .8.15 1.338.542.549.402 1.188 1.013 2.087 1.875l1.408 1.35V9c0 1.271-.001 2.174-.093 2.86-.09.67-.26 1.056-.542 1.339-.282.282-.668.45-1.339.541-.685.092-1.588.093-2.86.093-1.27 0-2.174 0-2.859-.093-.67-.09-1.057-.26-1.34-.541-.281-.283-.45-.669-.54-1.34-.093-.685-.094-1.588-.094-2.86V5.936l1.408-1.35z" fill="#161616"/>
</svg>
