<svg width="16" height="16" viewBox="0 0 16 16" fill="none" xmlns="http://www.w3.org/2000/svg">
    <path fill-rule="evenodd" clip-rule="evenodd" d="M7 7.833a3.17 3.17 0 0 1-3.166-3.166A3.17 3.17 0 0 1 7 1.5a3.17 3.17 0 0 1 3.167 3.167A3.17 3.17 0 0 1 7 7.833zM7 2.5a2.17 2.17 0 0 0-2.166 2.167A2.17 2.17 0 0 0 7 6.833a2.17 2.17 0 0 0 2.167-2.166A2.17 2.17 0 0 0 7 2.5zM4.387 14.5c-.94 0-1.78-.377-2.642-1.187-.435-.41-.626-.856-.568-1.326.12-.974 1.303-1.632 2.085-2.067l.052-.029.22-.125A6.86 6.86 0 0 1 7 8.833a6.86 6.86 0 0 1 3.466.933c.066.039.14.08.22.125l.053.029c.781.435 1.963 1.094 2.085 2.067.058.47-.133.916-.568 1.325-.863.81-1.703 1.188-2.642 1.188H4.387zM7 9.839c-1.03 0-2.06.263-2.96.79-.082.048-.175.1-.277.156l-.014.008c-.494.275-1.52.847-1.58 1.317-.016.136.071.295.261.474.666.625 1.288.916 1.958.916h5.226c.67 0 1.292-.291 1.958-.917.19-.178.277-.337.26-.473-.058-.47-1.084-1.04-1.578-1.316l-.046-.026c-.09-.05-.173-.096-.246-.14-.899-.526-1.93-.79-2.96-.79H7z" fill="#161616"/>
    <path d="M12.249 4.94a.5.5 0 0 0 .418.227l.014-.001h.014a.501.501 0 0 0 .418-.276c.01-.019.944-1.86 2.11-2.443a.5.5 0 0 0-.447-.894c-.98.49-1.774 1.58-2.205 2.273a3.95 3.95 0 0 0-.673-.46.5.5 0 0 0-.463.886c.154.082.602.365.814.689z" fill="#161616"/>
</svg>
