<svg width="16" height="16" viewBox="0 0 16 16" fill="none" xmlns="http://www.w3.org/2000/svg">
    <path d="M10 1.167H7.962c-1.46 0-2.607 0-3.503.12-.918.123-1.646.381-2.218.953-.572.573-.83 1.3-.954 2.219-.12.895-.12 2.042-.12 3.503v.076c0 1.46 0 2.607.12 3.503.124.918.382 1.646.954 2.218.572.572 1.3.83 2.218.954.896.12 2.043.12 3.503.12h.076c1.46 0 2.608 0 3.504-.12.917-.124 1.646-.382 2.218-.954.572-.572.83-1.3.953-2.218.12-.896.12-2.043.12-3.503V6.666a.5.5 0 0 0-1 0V8c0 1.507 0 2.587-.11 3.408-.11.807-.315 1.289-.67 1.644-.356.356-.838.561-1.645.67-.82.11-1.9.111-3.408.111-1.507 0-2.586 0-3.408-.111-.807-.109-1.289-.314-1.644-.67-.355-.355-.561-.837-.67-1.644-.11-.821-.111-1.901-.111-3.408s.001-2.587.111-3.408c.109-.807.315-1.29.67-1.644.355-.356.837-.562 1.644-.67.822-.11 1.901-.111 3.408-.111h2a.5.5 0 1 0 0-1z" fill="#161616"/>
    <path d="M14.372 2.668a.5.5 0 1 0-.743-.67L7.98 8.275l-1.96-1.961a.5.5 0 0 0-.708.707l2.334 2.333a.5.5 0 0 0 .725-.019l6-6.666z" fill="#161616"/>
</svg>
