<svg width="16" height="16" viewBox="0 0 16 16" fill="none" xmlns="http://www.w3.org/2000/svg">
    <path d="M5.333 4.167a.5.5 0 0 0 0 1h5.334a.5.5 0 0 0 0-1H5.333zM7 7.5a.5.5 0 0 0 0 1h2a.5.5 0 0 0 0-1H7z" fill="#161616"/>
    <path fill-rule="evenodd" clip-rule="evenodd" d="M8.03.833h-.06c-1.225 0-2.184 0-2.946.083-.777.084-1.406.259-1.944.65a3.833 3.833 0 0 0-.848.848c-.39.537-.565 1.167-.65 1.944C1.5 5.119 1.5 6.079 1.5 7.303v1.394c0 1.224 0 2.184.082 2.946.085.776.26 1.406.65 1.944.237.325.523.611.848.848.538.39 1.167.565 1.944.65.762.082 1.721.082 2.946.082h.06c1.225 0 2.184 0 2.946-.083.777-.084 1.406-.259 1.944-.65a3.83 3.83 0 0 0 .848-.847c.39-.538.565-1.168.65-1.944.082-.762.082-1.722.082-2.946V7.303c0-1.224 0-2.184-.082-2.945-.085-.777-.26-1.407-.65-1.944a3.831 3.831 0 0 0-.848-.848c-.538-.391-1.167-.566-1.944-.65C10.214.833 9.255.833 8.03.833zM3.668 2.375c.339-.246.772-.39 1.464-.465.701-.076 1.607-.077 2.868-.077s2.167.001 2.868.077c.692.075 1.125.219 1.464.465.24.174.452.386.627.626.246.34.39.773.464 1.465.076.7.077 1.606.077 2.867v1.334c0 1.26 0 2.167-.077 2.868-.075.692-.218 1.125-.464 1.464-.175.24-.386.452-.627.627-.339.246-.772.39-1.464.464-.701.076-1.607.077-2.868.077s-2.167 0-2.868-.077c-.692-.075-1.125-.218-1.464-.464a2.833 2.833 0 0 1-.627-.627c-.246-.339-.39-.772-.464-1.464C2.5 10.834 2.5 9.928 2.5 8.667V7.334c0-1.262 0-2.167.077-2.868.075-.692.218-1.126.464-1.465.175-.24.386-.452.627-.626z" fill="#161616"/>
</svg>
