<svg width="16" height="16" viewBox="0 0 16 16" fill="none" xmlns="http://www.w3.org/2000/svg">
    <path d="M6.4 5.033a.5.5 0 0 0-.8.6l4 5.334a.5.5 0 0 0 .8-.6l-4-5.334z" fill="#161616"/>
    <path fill-rule="evenodd" clip-rule="evenodd" d="M9.316 1.5H6.684c-.514 0-.935 0-1.282.034-.363.036-.683.112-.986.286-.303.174-.53.413-.743.709-.203.282-.414.646-.671 1.09L1.694 5.872c-.258.445-.47.81-.615 1.128-.151.333-.246.65-.246 1s.095.667.246 1c.145.318.357.683.615 1.128l1.308 2.253c.257.444.468.808.671 1.09.213.296.44.535.743.71.303.174.623.25.986.285.347.034.768.034 1.282.034h2.632c.513 0 .935 0 1.281-.034.363-.036.684-.111.987-.286.303-.174.529-.413.742-.709.203-.282.415-.646.672-1.09l1.307-2.253c.258-.445.47-.81.615-1.128.151-.333.246-.65.246-1s-.095-.667-.246-1c-.145-.318-.357-.683-.615-1.128l-1.307-2.253c-.257-.444-.469-.808-.672-1.09-.213-.296-.44-.535-.742-.71-.303-.173-.624-.25-.987-.285C10.251 1.5 9.83 1.5 9.316 1.5zM4.914 2.687c.138-.08.305-.13.586-.158.292-.028.664-.029 1.208-.029h2.583c.544 0 .916 0 1.208.03.282.027.449.078.586.157.137.079.265.197.43.426.17.238.357.559.63 1.029l1.283 2.21c.273.472.46.795.582 1.062.117.258.156.428.156.586 0 .158-.04.328-.156.586-.122.267-.309.59-.582 1.062l-1.283 2.21c-.272.47-.46.791-.63 1.029-.165.229-.293.348-.43.426-.137.08-.304.13-.586.158-.292.028-.664.029-1.208.029H6.708c-.544 0-.916 0-1.208-.03-.281-.027-.448-.078-.586-.157-.137-.079-.264-.197-.43-.426-.17-.238-.357-.559-.63-1.029l-1.282-2.21c-.274-.472-.46-.795-.582-1.062-.118-.258-.157-.428-.157-.586 0-.158.04-.328.157-.586.121-.267.308-.59.582-1.062l1.282-2.21c.273-.47.46-.791.63-1.029.166-.229.293-.347.43-.426z" fill="#161616"/>
</svg>
