<svg width="16" height="16" viewBox="0 0 16 16" fill="none" xmlns="http://www.w3.org/2000/svg">
<path fill-rule="evenodd" clip-rule="evenodd" d="M7.99998 14.833C7.72229 14.833 7.43661 14.6893 6.67316 14.3036L6.60065 14.2669C6.07265 13.9989 5.17532 13.6316 3.89798 13.3996L3.85532 13.3916C2.40932 13.129 1.68332 12.9969 1.26265 12.5063C0.833984 12.0056 0.833984 11.3243 0.833984 10.0876V5.54761C0.833984 4.21761 0.833984 3.41494 1.50132 2.87828C2.14998 2.34761 2.85732 2.47295 4.02932 2.68095L4.07532 2.68896C5.99326 3.03321 7.27099 3.89441 7.93189 4.45675C8.35974 3.77356 9.08426 2.78502 10.1287 2.03369C10.7427 1.5957 11.2267 1.25041 11.86 1.56507C11.861 1.56573 11.8622 1.56623 11.8633 1.56673C11.8645 1.56722 11.8657 1.56772 11.8667 1.56839C12.3454 1.81505 12.4619 2.24454 12.4902 2.82595C13.2081 2.53205 14.0023 2.47036 14.5027 2.87965C15.1667 3.41365 15.1667 4.21631 15.1667 5.54631V10.0863C15.1667 11.323 15.1667 12.005 14.7373 12.505C14.3173 12.9956 13.5913 13.1276 12.1453 13.3903L12.102 13.3983C10.8253 13.6303 9.92798 13.9983 9.39998 14.2656L9.32932 14.3016L9.32576 14.3034C8.57253 14.6839 8.28468 14.8294 8.01028 14.8329C8.00685 14.833 8.00342 14.833 7.99998 14.833ZM7.49935 13.6001V5.41131C7.03802 4.96819 5.85924 4.02491 3.89998 3.67294L3.85465 3.66493C2.79465 3.47693 2.41332 3.42359 2.13132 3.65425C1.84532 3.88425 1.83398 4.37095 1.83398 5.54761V10.0876C1.83398 11.0529 1.83398 11.6363 2.02198 11.8556C2.21091 12.0765 2.93351 12.2077 4.02685 12.4063L4.03399 12.4076L4.07665 12.4156C5.18132 12.6163 6.21065 12.9483 7.05198 13.375L7.12198 13.4103C7.25278 13.4765 7.38135 13.5415 7.49935 13.6001ZM9.21409 13.2464C10.0024 12.8815 10.9323 12.5963 11.9233 12.4156L11.9667 12.4076L11.9717 12.4067C13.0662 12.2079 13.7889 12.0766 13.978 11.8556C14.1667 11.6356 14.1667 11.0529 14.1667 10.0876V5.54761C14.1667 4.37095 14.1553 3.88492 13.8727 3.65692C13.6808 3.50002 13.0531 3.60709 12.4993 3.93611V9.32639C12.4993 9.84239 12.4993 10.1277 12.34 10.3977C12.1767 10.6817 11.8707 10.851 11.3187 11.1557C10.4029 11.6747 9.70594 12.5109 9.21409 13.2464ZM11.5 3.65527C11.4998 3.66315 11.4998 3.67104 11.5 3.67893V9.32568C11.5 9.56834 11.5 9.81837 11.4773 9.89104C11.404 9.96638 11.1013 10.1337 10.8333 10.2817C10.8321 10.2822 10.8311 10.2828 10.8302 10.2834C10.8297 10.2838 10.8292 10.2841 10.8287 10.2843C9.82268 10.8537 9.04935 11.7384 8.49935 12.525V5.4624C8.79735 4.92973 9.53068 3.69571 10.7113 2.84638C11.168 2.52038 11.3273 2.42236 11.4113 2.45836C11.5 2.51303 11.5 2.98038 11.5 3.43238V3.65527Z" fill="#161616"/>
</svg>
