<svg width="16" height="16" viewBox="0 0 16 16" fill="none" xmlns="http://www.w3.org/2000/svg">
    <path fill-rule="evenodd" clip-rule="evenodd" d="M10.303 8.5h3.06c.288 0 .553 0 .768.029.237.032.488.107.694.313.206.206.28.456.313.693.028.216.028.48.028.769v3.06c0 .288 0 .552-.029.768-.031.237-.106.487-.312.693-.206.206-.457.281-.694.313-.215.029-.48.029-.768.029h-3.06c-.288 0-.553 0-.768-.029-.237-.032-.488-.107-.694-.313-.206-.206-.28-.456-.312-.693a6.188 6.188 0 0 1-.03-.769v-3.06c0-.288 0-.552.03-.768.031-.237.106-.487.312-.693.206-.206.457-.281.694-.313.215-.029.48-.029.768-.029zm.03 1c-.328 0-.524.001-.665.02-.05.003-.148.038-.148.149-.02.14-.02.336-.02.665v3c0 .328 0 .524.02.664.008.05.049.149.148.149.14.019.337.02.665.02h3c.328 0 .524-.001.665-.02.05.003.148-.022.148-.149.02-.14.02-.336.02-.664v-3c0-.329 0-.525-.02-.665 0-.133-.099-.155-.148-.149a5.753 5.753 0 0 0-.665-.02h-3zM10.303.833h3.06c.288 0 .553 0 .768.03.237.031.488.106.694.312.206.206.28.457.313.694.028.215.028.48.028.768v3.06c0 .288 0 .553-.029.768-.031.237-.106.487-.312.693-.206.206-.457.281-.694.313-.215.03-.48.03-.768.03h-3.06c-.288 0-.553 0-.768-.03-.237-.032-.488-.107-.694-.313-.206-.206-.28-.456-.312-.693a6.188 6.188 0 0 1-.03-.768v-3.06c0-.289 0-.553.03-.768.031-.237.106-.488.312-.694.206-.206.457-.28.694-.313.215-.029.48-.029.768-.029zm.03 1c-.328 0-.524.002-.665.02-.05.004-.148.038-.148.149-.02.14-.02.336-.02.665v3c0 .328 0 .524.02.665.008.05.049.148.148.148.14.02.337.02.665.02h3c.328 0 .524 0 .665-.02.05.003.148-.022.148-.148.02-.14.02-.337.02-.665v-3c0-.329 0-.525-.02-.665 0-.133-.099-.154-.148-.149a5.756 5.756 0 0 0-.665-.02h-3zM5.696.833h-3.06c-.288 0-.553 0-.768.03-.237.031-.487.106-.693.312-.206.206-.281.457-.313.694a6.19 6.19 0 0 0-.029.768v3.06c0 .288 0 .553.029.768.032.237.107.487.313.693.206.206.456.281.693.313.215.03.48.03.768.03h3.06c.289 0 .553 0 .768-.03.237-.032.488-.107.694-.313.206-.206.28-.456.313-.693.029-.215.029-.48.029-.768v-3.06c0-.289 0-.553-.03-.768-.031-.237-.106-.488-.312-.694-.206-.206-.457-.28-.694-.313-.215-.029-.48-.029-.768-.029zm-3.695 1.02c.14-.018.337-.02.665-.02h3c.329 0 .525.002.665.02.05-.005.149.016.149.149.019.14.02.336.02.665v3c0 .328-.001.524-.02.665 0 .126-.1.151-.149.148-.14.02-.336.02-.665.02h-3c-.328 0-.524 0-.665-.02-.099 0-.14-.099-.148-.148a5.753 5.753 0 0 1-.02-.665v-3c0-.329.001-.525.02-.665 0-.111.099-.145.148-.149zM2.637 8.5h3.06c.288 0 .552 0 .767.029.237.032.488.107.694.313.206.206.28.456.313.693.029.216.029.48.029.769v3.06c0 .288 0 .552-.03.768-.031.237-.106.487-.312.693-.206.206-.457.281-.694.313-.215.029-.48.029-.768.029h-3.06c-.288 0-.553 0-.768-.029-.237-.032-.487-.107-.693-.313-.206-.206-.281-.456-.313-.693a6.19 6.19 0 0 1-.029-.769v-3.06c0-.288 0-.552.029-.768.032-.237.107-.487.313-.693.206-.206.456-.281.693-.313.215-.029.48-.029.769-.029zm.03 1c-.33 0-.525.001-.666.02-.049.003-.148.038-.148.149-.019.14-.02.336-.02.665v3c0 .328.001.524.02.664.008.05.049.149.148.149.14.019.337.02.665.02h3c.329 0 .525-.001.665-.02.05.003.149-.022.149-.149.019-.14.02-.336.02-.664v-3c0-.329-.001-.525-.02-.665 0-.133-.1-.155-.149-.149a5.753 5.753 0 0 0-.665-.02h-3z" fill="#161616"/>
</svg>
